<svg width="72" height="29" viewBox="0 0 72 29" fill="none" xmlns="http://www.w3.org/2000/svg">
<g clip-path="url(#clip0_224_2317)">
<path d="M13.1635 3.73882C12.3198 4.71836 10.9698 5.49096 9.61978 5.38059C9.45103 4.05614 10.112 2.64891 10.8854 1.77973C11.7292 0.772597 13.2057 0.0551855 14.401 0C14.5417 1.37964 13.9932 2.73168 13.1635 3.73882ZM14.387 5.64272C12.4323 5.53235 10.7588 6.73264 9.83072 6.73264C8.88853 6.73264 7.46822 5.69791 5.92134 5.7255C3.9104 5.75309 2.04009 6.8706 1.01353 8.65033C-1.09585 12.2098 0.465092 17.48 2.50415 20.3773C3.50259 21.8121 4.6979 23.3849 6.2729 23.3297C7.76353 23.2745 8.35415 22.3777 10.1542 22.3777C11.9682 22.3777 12.4885 23.3297 14.0635 23.3021C15.6948 23.2745 16.7213 21.8673 17.7198 20.4324C18.8588 18.8045 19.3229 17.2179 19.351 17.1351C19.3229 17.1075 16.201 15.9348 16.1729 12.403C16.1448 9.45052 18.6338 8.04329 18.7463 7.96051C17.3401 5.91865 15.1463 5.69791 14.387 5.64272ZM25.6792 1.64177V23.1503H29.0823V15.7969H33.7932C38.0963 15.7969 41.1198 12.8996 41.1198 8.70552C41.1198 4.51142 38.1526 1.64177 33.9057 1.64177H25.6792ZM29.0823 4.45623H33.0057C35.9588 4.45623 37.6463 6.00143 37.6463 8.71932C37.6463 11.4372 35.9588 12.9962 32.9917 12.9962H29.0823V4.45623ZM47.3354 23.3159C49.4729 23.3159 51.4557 22.2536 52.3557 20.5704H52.426V23.1503H55.576V12.4443C55.576 9.34015 53.0448 7.33968 49.1495 7.33968C45.5354 7.33968 42.8635 9.36774 42.7651 12.1546H45.8307C46.0838 10.8302 47.3354 9.96099 49.051 9.96099C51.1323 9.96099 52.2995 10.9129 52.2995 12.6651V13.8516L48.0526 14.0999C44.101 14.3344 41.9635 15.921 41.9635 18.6803C41.9635 21.4672 44.1713 23.3159 47.3354 23.3159ZM48.2495 20.7636C46.4354 20.7636 45.2823 19.9082 45.2823 18.5975C45.2823 17.2455 46.3932 16.4591 48.5167 16.3349L52.2995 16.1004V17.3145C52.2995 19.3287 50.5557 20.7636 48.2495 20.7636ZM59.7807 29C63.0995 29 64.6604 27.7583 66.0245 23.9919L72.001 7.54662H68.5417L64.5338 20.2531H64.4635L60.4557 7.54662H56.8979L62.6635 23.2055L62.3542 24.1575C61.8338 25.7716 60.9901 26.3925 59.4854 26.3925C59.2182 26.3925 58.6979 26.3649 58.487 26.3373V28.9172C58.6838 28.9724 59.5276 29 59.7807 29Z" fill="black"/>
</g>
<defs>
<clipPath id="clip0_224_2317">
<rect width="72" height="29" fill="white"/>
</clipPath>
</defs>
</svg>
