<svg width="20" height="20" viewBox="0 0 20 20" fill="none" xmlns="http://www.w3.org/2000/svg">
<path d="M3.45171 3.66678L5.00756 13.7798C5.01889 13.8633 5.04257 13.9429 5.07671 14.0166C5.17948 14.2385 5.37701 14.4076 5.61736 14.4719C5.69078 14.4916 5.76774 14.5015 5.84644 14.5001H15C15.368 14.5001 15.6924 14.2587 15.7981 13.9062L18.2981 5.5729C18.3738 5.32059 18.3258 5.04735 18.1685 4.83601C18.0113 4.62466 17.7634 4.50011 17.5 4.50011H5.26619L4.99211 2.71861C4.98184 2.64412 4.96173 2.57278 4.93313 2.50593C4.88122 2.3842 4.80173 2.27876 4.70354 2.19611C4.61243 2.11928 4.50463 2.06163 4.38635 2.02939C4.31191 2.009 4.23379 1.99879 4.15387 2.00011H2.49996C2.03972 2.00011 1.66663 2.37321 1.66663 2.83345C1.66663 3.29369 2.03972 3.66678 2.49996 3.66678H3.45171ZM6.54824 12.8334L5.5226 6.16678H16.3799L14.3799 12.8334H6.54824Z" fill="#060A16"/>
<path d="M8.33329 17.0001C8.33329 17.9206 7.5871 18.6668 6.66663 18.6668C5.74615 18.6668 4.99996 17.9206 4.99996 17.0001C4.99996 16.0796 5.74615 15.3334 6.66663 15.3334C7.5871 15.3334 8.33329 16.0796 8.33329 17.0001Z" fill="#060A16"/>
<path d="M15.8333 17.0001C15.8333 17.9206 15.0871 18.6668 14.1666 18.6668C13.2462 18.6668 12.5 17.9206 12.5 17.0001C12.5 16.0796 13.2462 15.3334 14.1666 15.3334C15.0871 15.3334 15.8333 16.0796 15.8333 17.0001Z" fill="#060A16"/>
</svg>
