<svg width="137" height="31" viewBox="0 0 137 31" fill="none" xmlns="http://www.w3.org/2000/svg">
<path fill-rule="evenodd" clip-rule="evenodd" d="M51.3992 7.46097H43.7925V12.7727H51.1302V15.9085H43.7925V26.4334H40.4985V4.32483H51.3992V7.46097Z" fill="#3D3D3D"/>
<path fill-rule="evenodd" clip-rule="evenodd" d="M57.4785 15.3142C57.4785 17.7566 58.2892 19.7638 59.9106 21.3376C61.5221 22.911 63.3836 23.6981 65.4948 23.6981C67.7853 23.6981 69.7174 22.8971 71.2915 21.295C72.8656 19.673 73.653 17.6987 73.653 15.3721C73.653 13.0163 72.8751 11.042 71.3201 9.44887C69.7739 7.84647 67.8605 7.04544 65.5795 7.04544C63.3081 7.04544 61.3901 7.84647 59.8255 9.44887C58.261 11.032 57.4785 12.9877 57.4785 15.3142ZM54.1562 15.2784C54.1562 12.167 55.2823 9.49428 57.535 7.26072C59.7782 5.02608 62.4737 3.9093 65.6222 3.9093C68.7326 3.9093 71.3999 5.0361 73.6244 7.28933C75.8584 9.54149 76.9752 12.2482 76.9752 15.4079C76.9752 18.5862 75.8534 21.2829 73.6102 23.4979C71.3575 25.7221 68.638 26.8335 65.4524 26.8335C62.6344 26.8335 60.1037 25.8459 57.8605 23.8701C55.3907 21.6838 54.1562 18.8205 54.1562 15.2784Z" fill="#62BA46"/>
<path fill-rule="evenodd" clip-rule="evenodd" d="M106.385 23.2974H107.869C109.349 23.2974 110.579 23.1397 111.559 22.8246C112.54 22.4906 113.426 21.9607 114.217 21.2354C115.838 19.7368 116.649 17.7846 116.649 15.3791C116.649 12.9542 115.848 10.9881 114.246 9.47938C112.804 8.13374 110.678 7.46109 107.869 7.46109H106.385V23.2974ZM103.09 26.4335V4.32495H107.671C109.867 4.32495 111.602 4.54487 112.874 4.98365C114.241 5.41313 115.48 6.1437 116.592 7.17466C118.845 9.25517 119.972 11.9904 119.972 15.3791C119.972 18.777 118.798 21.5269 116.451 23.6264C115.273 24.6766 114.038 25.4065 112.747 25.8174C111.54 26.2279 109.83 26.4335 107.615 26.4335H103.09Z" fill="#3D3D3D"/>
<path fill-rule="evenodd" clip-rule="evenodd" d="M126.363 16.8822L119.237 4.32507H123.027L128.017 13.1596L133.022 4.32507H136.811L129.657 16.8822V26.4333H126.363V16.8822Z" fill="#3D3D3D"/>
<path fill-rule="evenodd" clip-rule="evenodd" d="M96.0306 4.32507V20.584L83.2321 4.32507H80.0581V26.4333H83.3525V10.1457L96.1507 26.4333H99.325V4.32507H96.0306Z" fill="#3D3D3D"/>
<mask id="mask0_224_2282" style="mask-type:alpha" maskUnits="userSpaceOnUse" x="0" y="0" width="31" height="31">
<path d="M0 30.5356H30.1093V0H0V30.5356Z" fill="white"/>
</mask>
<g mask="url(#mask0_224_2282)">
<path fill-rule="evenodd" clip-rule="evenodd" d="M14.9256 0L14.4828 0.266769L9.42687 3.33139L9.03282 3.586V4.08485V8.9929L4.92564 11.4764L4.51641 11.7317V12.2295V17.1379L0.409235 19.6215L0 19.8764V20.3749V26.4455V26.944L0.366863 27.199L5.42351 30.2632L5.84722 30.5264L6.28011 30.2675L10.4911 27.7865L14.6505 30.2654L15.0898 30.5275L15.5287 30.2643L19.6471 27.7965L23.5414 30.2539L23.9884 30.5357L24.4411 30.2636L29.6125 27.1993L30.1093 26.9444V26.4455V20.3749V19.8764L29.7 19.6215L25.5929 17.1379V12.2295V11.7317L25.1836 11.4764L21.0765 8.9929V4.08485V3.586L20.5532 3.33139L15.4181 0.266769L14.9256 0ZM15.0541 1.02023L20.1729 4.08485V9.49139L24.6893 12.2295V17.6364L29.2061 20.3749V26.4455L24.0537 29.5098L19.6856 26.7716L15.1011 29.5098L10.4971 26.7716L5.91642 29.5098L0.903211 26.4455V20.3749L5.41927 17.6364V12.2295L9.93568 9.49139V4.08485L15.0541 1.02023Z" fill="#3D3D3D"/>
</g>
<path fill-rule="evenodd" clip-rule="evenodd" d="M18.9686 9.53226L15.0538 11.945L11.1401 9.53226V4.70789L15.0538 2.29553L18.9686 4.70789V9.53226Z" fill="#5AC341"/>
<path fill-rule="evenodd" clip-rule="evenodd" d="M18.9686 25.8222L15.0538 28.2349L11.1401 25.8222V20.9978L15.0538 18.5854L18.9686 20.9978V25.8222Z" fill="#3D3D3D"/>
<path fill-rule="evenodd" clip-rule="evenodd" d="M28.0018 25.8222L24.0874 28.2349L20.1733 25.8222V20.9978L24.0874 18.5854L28.0018 20.9978V25.8222Z" fill="#3D3D3D"/>
<path fill-rule="evenodd" clip-rule="evenodd" d="M9.93589 25.8222L5.87109 28.2349L1.80664 25.8222V20.9978L5.87109 18.5854L9.93589 20.9978V25.8222Z" fill="#3D3D3D"/>
<path fill-rule="evenodd" clip-rule="evenodd" d="M14.4524 17.6778L10.5384 20.0898L6.62402 17.6778V12.8527L10.5384 10.4403L14.4524 12.8527V17.6778Z" fill="#3D3D3D"/>
<path fill-rule="evenodd" clip-rule="evenodd" d="M23.4852 17.6778L19.5711 20.0898L15.6567 17.6778V12.8527L19.5711 10.4403L23.4852 12.8527V17.6778Z" fill="#3D3D3D"/>
</svg>
