<svg width="68" height="27" viewBox="0 0 68 27" fill="none" xmlns="http://www.w3.org/2000/svg">
<g clip-path="url(#clip0_224_2325)">
<path d="M32.1616 13.1905V21.105H29.6504V1.55954H36.3105C37.1055 1.54294 37.8959 1.68391 38.6361 1.97433C39.3763 2.26475 40.0516 2.69887 40.6232 3.25162C41.2005 3.77082 41.6599 4.40756 41.9706 5.11904C42.2814 5.83053 42.4362 6.60028 42.4247 7.37656C42.4412 8.15699 42.2888 8.93176 41.9778 9.64778C41.6669 10.3638 41.2048 11.0041 40.6232 11.5249C39.4586 12.6353 38.021 13.1899 36.3105 13.1889H32.1616V13.1905ZM32.1616 3.96588V10.7888H36.3729C36.8346 10.8025 37.294 10.7197 37.7218 10.5456C38.1497 10.3716 38.5365 10.1103 38.8575 9.77822C39.1769 9.46778 39.4307 9.09646 39.6041 8.68622C39.7774 8.27599 39.8667 7.83516 39.8667 7.38981C39.8667 6.94447 39.7774 6.50364 39.6041 6.0934C39.4307 5.68317 39.1769 5.31185 38.8575 5.00141C38.5405 4.66238 38.1551 4.39459 37.7267 4.2158C37.2983 4.037 36.8369 3.95128 36.3729 3.96432H32.1616V3.96588Z" fill="#5F6368"/>
<path d="M48.2115 7.29541C50.0676 7.29541 51.5327 7.79134 52.6069 8.78319C53.681 9.77505 54.2176 11.135 54.2165 12.8629V21.105H51.8145V19.2491H51.7054C50.6655 20.7775 49.2826 21.5416 47.5565 21.5416C46.083 21.5416 44.8503 21.105 43.8583 20.2316C43.3822 19.8308 43.0016 19.3288 42.7442 18.7623C42.4868 18.1957 42.3591 17.5788 42.3703 16.9566C42.3703 15.5728 42.8933 14.4723 43.9394 13.6551C44.9855 12.838 46.382 12.4283 48.1289 12.4262C49.62 12.4262 50.848 12.6992 51.813 13.245V12.6711C51.8158 12.2469 51.7242 11.8274 51.5448 11.4431C51.3654 11.0587 51.1027 10.719 50.7758 10.4488C50.1117 9.84972 49.2463 9.52286 48.3519 9.53332C46.9492 9.53332 45.8392 10.1249 45.0219 11.3081L42.8102 9.91541C44.0268 8.16874 45.8272 7.29541 48.2115 7.29541ZM44.9626 17.0112C44.9609 17.3308 45.0356 17.6461 45.1805 17.9309C45.3254 18.2158 45.5362 18.4619 45.7955 18.6487C46.3509 19.0855 47.0402 19.3169 47.7467 19.3037C48.8064 19.302 49.8222 18.8802 50.5714 18.131C51.4033 17.3481 51.8192 16.4295 51.8192 15.3753C51.0362 14.7515 49.9444 14.4396 48.5438 14.4396C47.5237 14.4396 46.6731 14.6855 45.992 15.1772C45.3042 15.6763 44.9626 16.2829 44.9626 17.0112Z" fill="#5F6368"/>
<path d="M68.0045 7.73218L59.6193 27.0001H57.027L60.1387 20.2583L54.625 7.73218H57.3545L61.3397 17.3388H61.3943L65.2702 7.73218H68.0045Z" fill="#5F6368"/>
<path d="M22.014 11.4843C22.015 10.7191 21.9503 9.95529 21.8206 9.20117H11.23V13.5257H17.2958C17.1717 14.2164 16.909 14.8748 16.5235 15.4613C16.138 16.0477 15.6378 16.55 15.0529 16.938V19.7451H18.6731C20.7927 17.791 22.014 14.9012 22.014 11.4843Z" fill="#4285F4"/>
<path d="M11.2301 22.4571C14.2607 22.4571 16.8124 21.4621 18.6732 19.7466L15.053 16.9395C14.0454 17.6226 12.7477 18.0125 11.2301 18.0125C8.30091 18.0125 5.81468 16.0381 4.92563 13.3776H1.19629V16.2705C2.13099 18.1302 3.56425 19.6935 5.33606 20.786C7.10787 21.8784 9.14849 22.457 11.2301 22.4571Z" fill="#34A853"/>
<path d="M4.92564 13.3776C4.45563 11.9835 4.45563 10.4737 4.92564 9.07956V6.18665H1.1963C0.409995 7.75108 0.000488281 9.4777 0.000488281 11.2286C0.000488281 12.9795 0.409995 14.7061 1.1963 16.2705L4.92564 13.3776Z" fill="#FBBC04"/>
<path d="M11.2301 4.44464C12.8316 4.41848 14.3791 5.0235 15.5381 6.12892L18.7434 2.92411C16.7109 1.01537 14.0183 -0.0325571 11.2301 4.2764e-06C9.14849 9.91345e-05 7.10787 0.578672 5.33606 1.67113C3.56425 2.76359 2.13099 4.32693 1.19629 6.18663L4.92563 9.07954C5.81468 6.41899 8.30091 4.44464 11.2301 4.44464Z" fill="#EA4335"/>
</g>
<defs>
<clipPath id="clip0_224_2325">
<rect width="68" height="27" fill="white"/>
</clipPath>
</defs>
</svg>
