<svg width="20" height="20" viewBox="0 0 20 20" fill="none" xmlns="http://www.w3.org/2000/svg">
<path fill-rule="evenodd" clip-rule="evenodd" d="M10 0C4.47715 0 0 4.47715 0 10C0 15.5228 4.47715 20 10 20C15.5228 20 20 15.5228 20 10C20 4.47715 15.5228 0 10 0ZM7.80125 4.69888C8.37015 4.67299 8.55193 4.66666 10.0004 4.66666H9.99872C11.4476 4.66666 11.6287 4.67299 12.1976 4.69888C12.7654 4.72488 13.1532 4.81477 13.4932 4.94666C13.8443 5.08277 14.141 5.265 14.4377 5.56167C14.7343 5.85812 14.9165 6.15567 15.0532 6.50646C15.1843 6.84557 15.2743 7.23313 15.301 7.80091C15.3266 8.36981 15.3332 8.55159 15.3332 10C15.3332 11.4485 15.3266 11.6298 15.301 12.1987C15.2743 12.7663 15.1843 13.154 15.0532 13.4932C14.9165 13.8439 14.7343 14.1414 14.4377 14.4379C14.1413 14.7345 13.8442 14.9172 13.4935 15.0534C13.1542 15.1853 12.7662 15.2752 12.1984 15.3012C11.6295 15.3271 11.4483 15.3334 9.99972 15.3334C8.55137 15.3334 8.3697 15.3271 7.80081 15.3012C7.23314 15.2752 6.84547 15.1853 6.50613 15.0534C6.15557 14.9172 5.85801 14.7345 5.56168 14.4379C5.26512 14.1414 5.08289 13.8439 4.94656 13.4931C4.81478 13.154 4.72489 12.7664 4.69878 12.1986C4.673 11.6297 4.66655 11.4485 4.66655 10C4.66655 8.55159 4.67322 8.3697 4.69867 7.8008C4.72422 7.23324 4.81422 6.84557 4.94645 6.50635C5.08311 6.15567 5.26534 5.85812 5.56201 5.56167C5.85846 5.26511 6.15601 5.08289 6.5068 4.94666C6.84591 4.81477 7.23347 4.72488 7.80125 4.69888Z" fill="black"/>
<path fill-rule="evenodd" clip-rule="evenodd" d="M9.52175 5.6278C9.61465 5.62765 9.71459 5.6277 9.82244 5.62775L10.0002 5.6278C11.4242 5.6278 11.593 5.63291 12.1553 5.65847C12.6753 5.68224 12.9576 5.76913 13.1456 5.84213C13.3945 5.9388 13.5719 6.05436 13.7585 6.24103C13.9451 6.4277 14.0607 6.60548 14.1576 6.85437C14.2306 7.04215 14.3176 7.32437 14.3412 7.84438C14.3668 8.40661 14.3724 8.5755 14.3724 9.99884C14.3724 11.4222 14.3668 11.5911 14.3412 12.1533C14.3175 12.6733 14.2306 12.9555 14.1576 13.1433C14.0609 13.3922 13.9451 13.5694 13.7585 13.756C13.5718 13.9427 13.3946 14.0582 13.1456 14.1549C12.9578 14.2282 12.6753 14.3149 12.1553 14.3387C11.5931 14.3642 11.4242 14.3698 10.0002 14.3698C8.57607 14.3698 8.40729 14.3642 7.84506 14.3387C7.32506 14.3147 7.04283 14.2278 6.85472 14.1548C6.60583 14.0581 6.42805 13.9426 6.24138 13.7559C6.05471 13.5692 5.93916 13.3919 5.84227 13.1429C5.76926 12.9551 5.68226 12.6729 5.6586 12.1529C5.63304 11.5906 5.62793 11.4217 5.62793 9.99751C5.62793 8.57327 5.63304 8.40527 5.6586 7.84304C5.68237 7.32304 5.76926 7.04081 5.84227 6.85281C5.93893 6.60392 6.05471 6.42614 6.24138 6.23947C6.42805 6.0528 6.60583 5.93725 6.85472 5.84036C7.04272 5.76702 7.32506 5.68035 7.84506 5.65647C8.33707 5.63424 8.52774 5.62758 9.52175 5.62646V5.6278ZM12.8471 6.51335C12.4938 6.51335 12.2071 6.79968 12.2071 7.15313C12.2071 7.50647 12.4938 7.79314 12.8471 7.79314C13.2005 7.79314 13.4871 7.50647 13.4871 7.15313C13.4871 6.79979 13.2005 6.51312 12.8471 6.51312V6.51335ZM7.26135 10.0001C7.26135 8.48754 8.48763 7.26122 10.0002 7.26116C11.5127 7.26116 12.7387 8.48751 12.7387 10.0001C12.7387 11.5127 11.5128 12.7384 10.0003 12.7384C8.48769 12.7384 7.26135 11.5127 7.26135 10.0001Z" fill="black"/>
<path d="M10.0005 8.22229C10.9822 8.22229 11.7783 9.01819 11.7783 10.0001C11.7783 10.9819 10.9822 11.7779 10.0005 11.7779C9.01855 11.7779 8.22266 10.9819 8.22266 10.0001C8.22266 9.01819 9.01855 8.22229 10.0005 8.22229Z" fill="black"/>
</svg>
