<svg width="22" height="33" viewBox="0 0 22 33" fill="none" xmlns="http://www.w3.org/2000/svg">
<mask id="mask0_248_2890" style="mask-type:alpha" maskUnits="userSpaceOnUse" x="0" y="0" width="22" height="33">
<path d="M22 3.66667L18.3333 0H3.66667L0 3.66667V29.3333L3.66667 33H18.3333L18.8266 32.5063L21.5793 29.7541L22 29.3333V3.66667Z" fill="#C4C4C4"/>
</mask>
<g mask="url(#mask0_248_2890)">
<rect x="3.66797" y="3.66687" width="14.6667" height="25.6667" fill="url(#paint0_linear_248_2890)"/>
<rect x="18.334" y="3.66687" width="3.66667" height="25.6667" fill="url(#paint1_linear_248_2890)"/>
<rect x="0.000976562" y="3.66687" width="3.66667" height="25.6667" fill="url(#paint2_linear_248_2890)"/>
<rect x="3.66797" width="14.6667" height="3.66667" fill="#4C67BF"/>
<path d="M21.999 3.66667L18.3324 3.66667L18.3324 1.60275e-07L21.999 3.66667Z" fill="url(#paint3_linear_248_2890)"/>
<path d="M0 3.66667L3.66667 3.66667L3.66667 1.60275e-07L0 3.66667Z" fill="url(#paint4_linear_248_2890)"/>
<g style="mix-blend-mode:multiply">
<path d="M0.000976562 29.3333L3.66764 29.3333L3.66764 33L0.000976562 29.3333Z" fill="url(#paint5_linear_248_2890)"/>
</g>
<rect x="3.66797" y="29.3331" width="14.6667" height="3.66667" fill="#2144B9"/>
<g style="mix-blend-mode:color-dodge" filter="url(#filter0_f_248_2890)">
<g style="mix-blend-mode:color-dodge">
<ellipse rx="2.29167" ry="1.83333" transform="matrix(4.37114e-08 1 1 -4.37114e-08 1.83431 10.5417)" fill="#FF4A8B"/>
</g>
<g style="mix-blend-mode:screen">
<ellipse rx="2.29167" ry="1.83333" transform="matrix(4.37114e-08 1 1 -4.37114e-08 1.83626 5.95854)" fill="#5E1E8F"/>
</g>
<g style="mix-blend-mode:color-dodge">
<ellipse rx="4.58333" ry="1.83333" transform="matrix(4.37114e-08 1 1 -4.37114e-08 1.83626 8.2502)" fill="#530E33"/>
</g>
</g>
<g style="mix-blend-mode:color-dodge" filter="url(#filter1_f_248_2890)">
<g style="mix-blend-mode:color-dodge">
<ellipse rx="2.29167" ry="1.83333" transform="matrix(4.37114e-08 1 1 -4.37114e-08 20.1668 10.5417)" fill="#E4F8FF"/>
</g>
<g style="mix-blend-mode:screen">
<ellipse rx="2.29167" ry="1.83333" transform="matrix(4.37114e-08 1 1 -4.37114e-08 20.1673 5.95854)" fill="#F70000"/>
</g>
<g style="mix-blend-mode:color-dodge">
<ellipse rx="4.58333" ry="1.83333" transform="matrix(4.37114e-08 1 1 -4.37114e-08 20.1673 8.2502)" fill="#25EB21"/>
</g>
</g>
<g style="mix-blend-mode:screen" filter="url(#filter2_f_248_2890)">
<g style="mix-blend-mode:color-dodge">
<ellipse rx="2.29167" ry="1.83333" transform="matrix(-4.37114e-08 -1 -1 4.37114e-08 1.83464 22.4583)" fill="#FF4A8B"/>
</g>
<g style="mix-blend-mode:screen">
<ellipse rx="2.29167" ry="1.83333" transform="matrix(-4.37114e-08 -1 -1 4.37114e-08 1.83415 27.0415)" fill="#5E1E8F"/>
</g>
<g style="mix-blend-mode:color-dodge">
<ellipse rx="4.58333" ry="1.83333" transform="matrix(-4.37114e-08 -1 -1 4.37114e-08 1.83415 24.7498)" fill="#530E33"/>
</g>
</g>
<g style="mix-blend-mode:screen" filter="url(#filter3_f_248_2890)">
<g style="mix-blend-mode:color-dodge">
<ellipse rx="2.29167" ry="1.83333" transform="matrix(-4.37114e-08 -1 -1 4.37114e-08 20.1667 22.4583)" fill="#FF4A8B"/>
</g>
<g style="mix-blend-mode:screen">
<ellipse rx="2.29167" ry="1.83333" transform="matrix(-4.37114e-08 -1 -1 4.37114e-08 20.1657 27.0415)" fill="#5E1E8F"/>
</g>
<g style="mix-blend-mode:color-dodge">
<ellipse rx="4.58333" ry="1.83333" transform="matrix(-4.37114e-08 -1 -1 4.37114e-08 20.1657 24.7498)" fill="#530E33"/>
</g>
</g>
<g style="mix-blend-mode:screen" filter="url(#filter4_f_248_2890)">
<g style="mix-blend-mode:color-dodge">
<ellipse rx="3.66667" ry="1.83333" transform="matrix(-1 8.74228e-08 8.74228e-08 1 7.33333 1.83333)" fill="#4E15EF"/>
</g>
<g style="mix-blend-mode:screen">
<ellipse rx="3.66667" ry="1.83333" transform="matrix(-1 8.74228e-08 8.74228e-08 1 14.6673 1.83333)" fill="#C6F3DE"/>
</g>
<g style="mix-blend-mode:color-dodge">
<ellipse rx="7.33333" ry="1.83333" transform="matrix(-1 8.74228e-08 8.74228e-08 1 11.0007 1.83333)" fill="#8573EE"/>
</g>
</g>
<g style="mix-blend-mode:screen" filter="url(#filter5_f_248_2890)">
<g style="mix-blend-mode:color-dodge">
<ellipse cx="14.6681" cy="31.1665" rx="3.66667" ry="1.83333" fill="#22086C"/>
</g>
<g style="mix-blend-mode:screen">
<ellipse cx="7.33464" cy="31.1666" rx="3.66667" ry="1.83333" fill="#9F298D"/>
</g>
<g style="mix-blend-mode:color-dodge">
<ellipse cx="11.0013" cy="31.1666" rx="7.33333" ry="1.83333" fill="#D333BA"/>
</g>
</g>
<g style="mix-blend-mode:color-dodge" filter="url(#filter6_f_248_2890)">
<g style="mix-blend-mode:color-dodge">
<ellipse rx="6.41667" ry="1.83333" transform="matrix(4.37114e-08 1 1 -4.37114e-08 20.1668 22.9167)" fill="#FFB800"/>
</g>
<g style="mix-blend-mode:screen">
<ellipse rx="6.41667" ry="1.83333" transform="matrix(4.37114e-08 1 1 -4.37114e-08 20.1673 10.0835)" fill="#01C2FF"/>
</g>
<g style="mix-blend-mode:color-dodge">
<ellipse rx="12.8333" ry="1.83333" transform="matrix(4.37114e-08 1 1 -4.37114e-08 20.1673 16.5002)" fill="#01071E"/>
</g>
</g>
<g style="mix-blend-mode:lighten" filter="url(#filter7_f_248_2890)">
<g style="mix-blend-mode:color-dodge">
<ellipse rx="4.97845" ry="5.26293" transform="matrix(4.37114e-08 1 1 -4.37114e-08 16.3581 27.4526)" fill="#0E3BAD"/>
</g>
<g style="mix-blend-mode:screen">
<ellipse rx="5.27083" ry="5.5" transform="matrix(4.37114e-08 1 1 -4.37114e-08 16.5 17.1877)" fill="#5227FF"/>
</g>
<g style="mix-blend-mode:color-dodge">
<ellipse rx="10.5417" ry="5.5" transform="matrix(4.37114e-08 1 1 -4.37114e-08 16.5 22.4585)" fill="#1B0048"/>
</g>
</g>
<g style="mix-blend-mode:color-dodge" filter="url(#filter8_f_248_2890)">
<g style="mix-blend-mode:color-dodge">
<ellipse rx="5.27083" ry="5.5" transform="matrix(4.37114e-08 1 1 -4.37114e-08 6.41602 15.8125)" fill="#BB37EA"/>
</g>
<g style="mix-blend-mode:screen">
<ellipse rx="5.27083" ry="5.5" transform="matrix(4.37114e-08 1 1 -4.37114e-08 6.41797 5.27083)" fill="#591999"/>
</g>
<g style="mix-blend-mode:color-dodge">
<ellipse rx="10.5417" ry="5.5" transform="matrix(4.37114e-08 1 1 -4.37114e-08 6.41797 10.5417)" fill="#183AAF"/>
</g>
</g>
<g style="mix-blend-mode:color-dodge" filter="url(#filter9_f_248_2890)">
<g style="mix-blend-mode:color-dodge">
<ellipse rx="0.458333" ry="0.916666" transform="matrix(-1 8.74228e-08 8.74228e-08 1 18.7931 2.75004)" fill="#FFA89D"/>
</g>
<g style="mix-blend-mode:screen">
<ellipse rx="0.458333" ry="0.916666" transform="matrix(-1 8.74228e-08 8.74228e-08 1 19.7096 2.75028)" fill="#B6DCFF"/>
</g>
<g style="mix-blend-mode:color-dodge">
<ellipse rx="0.916667" ry="0.916666" transform="matrix(-1 8.74228e-08 8.74228e-08 1 19.2513 2.75028)" fill="#F02392"/>
</g>
</g>
<g style="mix-blend-mode:color-dodge" filter="url(#filter10_f_248_2890)">
<g style="mix-blend-mode:color-dodge">
<ellipse rx="0.458333" ry="0.916666" transform="matrix(-1 8.74228e-08 8.74228e-08 1 2.29313 30.2498)" fill="#FFA89D"/>
</g>
<g style="mix-blend-mode:screen">
<ellipse rx="0.458333" ry="0.916666" transform="matrix(-1 8.74228e-08 8.74228e-08 1 3.20964 30.2499)" fill="#B6DCFF"/>
</g>
<g style="mix-blend-mode:color-dodge">
<ellipse rx="0.916667" ry="0.916666" transform="matrix(-1 8.74228e-08 8.74228e-08 1 2.7513 30.2499)" fill="#F02392"/>
</g>
</g>
<g style="mix-blend-mode:color-dodge" filter="url(#filter11_f_248_2890)">
<g style="mix-blend-mode:color-dodge">
<ellipse rx="0.458333" ry="0.916666" transform="matrix(-1 8.74228e-08 8.74228e-08 1 18.7931 30.2498)" fill="#FFA89D"/>
</g>
<g style="mix-blend-mode:screen">
<ellipse rx="0.458333" ry="0.916666" transform="matrix(-1 8.74228e-08 8.74228e-08 1 19.7096 30.2499)" fill="#B6DCFF"/>
</g>
<g style="mix-blend-mode:color-dodge">
<ellipse rx="0.916667" ry="0.916666" transform="matrix(-1 8.74228e-08 8.74228e-08 1 19.2513 30.2499)" fill="#F02392"/>
</g>
</g>
<g style="mix-blend-mode:color-dodge" filter="url(#filter12_f_248_2890)">
<g style="mix-blend-mode:color-dodge">
<ellipse rx="0.458333" ry="0.916666" transform="matrix(-1 8.74228e-08 8.74228e-08 1 2.29313 2.75004)" fill="#FFA89D"/>
</g>
<g style="mix-blend-mode:screen">
<ellipse rx="0.458333" ry="0.916666" transform="matrix(-1 8.74228e-08 8.74228e-08 1 3.20964 2.75028)" fill="#B6DCFF"/>
</g>
<g style="mix-blend-mode:color-dodge">
<ellipse rx="0.916667" ry="0.916666" transform="matrix(-1 8.74228e-08 8.74228e-08 1 2.7513 2.75028)" fill="#F02392"/>
</g>
</g>
<g style="mix-blend-mode:hard-light" filter="url(#filter13_f_248_2890)">
<ellipse cx="17.7804" cy="25.8879" rx="14.3664" ry="19.0603" fill="black" fill-opacity="0.88"/>
</g>
<g style="mix-blend-mode:color-dodge">
<rect x="3.66797" y="3.66687" width="14.6667" height="25.6667" fill="url(#paint6_linear_248_2890)"/>
</g>
<g style="mix-blend-mode:darken">
<rect x="18.334" y="3.66687" width="3.66667" height="25.6667" fill="url(#paint7_linear_248_2890)" fill-opacity="0.84"/>
</g>
<g style="mix-blend-mode:overlay" filter="url(#filter14_b_248_2890)">
<rect x="3.66797" width="14.6667" height="3.66667" fill="url(#paint8_linear_248_2890)" fill-opacity="0.7"/>
</g>
<g style="mix-blend-mode:darken">
<rect x="3.66797" y="29.3331" width="14.6667" height="3.66667" fill="url(#paint9_linear_248_2890)"/>
</g>
<g style="mix-blend-mode:hard-light">
<rect x="0.000976562" y="3.66687" width="3.66667" height="25.6667" fill="url(#paint10_linear_248_2890)"/>
</g>
<g style="mix-blend-mode:lighten">
<path d="M0.000976562 29.3333L3.66764 29.3333L3.66764 33L0.000976562 29.3333Z" fill="url(#paint11_linear_248_2890)"/>
</g>
<g style="mix-blend-mode:lighten">
<path d="M0 3.66667L3.66667 3.66667L3.66667 1.60275e-07L0 3.66667Z" fill="url(#paint12_linear_248_2890)"/>
</g>
<path d="M21.999 29.3333L18.3324 29.3333L18.3324 33L21.999 29.3333Z" fill="url(#paint13_linear_248_2890)"/>
<g style="mix-blend-mode:color-dodge">
<path d="M21.999 3.66667L18.3324 3.66667L18.3324 1.60275e-07L21.999 3.66667Z" fill="url(#paint14_linear_248_2890)" style="mix-blend-mode:color-burn"/>
</g>
<mask id="mask1_248_2890" style="mask-type:alpha" maskUnits="userSpaceOnUse" x="0" y="0" width="23" height="33">
<g style="mix-blend-mode:color-dodge">
<rect width="22.1897" height="33" fill="url(#paint15_linear_248_2890)"/>
</g>
</mask>
<g mask="url(#mask1_248_2890)">
<rect x="19.1128" y="-7.90564" width="6.94881" height="38.5849" transform="rotate(41.7858 19.1128 -7.90564)" fill="url(#paint16_linear_248_2890)" fill-opacity="0.4"/>
<rect x="23.8081" y="15.3621" width="5.03313" height="44.6174" transform="rotate(41.7858 23.8081 15.3621)" fill="url(#paint17_linear_248_2890)" fill-opacity="0.1"/>
</g>
</g>
<defs>
<filter id="filter0_f_248_2890" x="-8.30458" y="-4.63869" width="20.2796" height="25.7777" filterUnits="userSpaceOnUse" color-interpolation-filters="sRGB">
<feFlood flood-opacity="0" result="BackgroundImageFix"/>
<feBlend mode="normal" in="SourceGraphic" in2="BackgroundImageFix" result="shape"/>
<feGaussianBlur stdDeviation="4.15278" result="effect1_foregroundBlur_248_2890"/>
</filter>
<filter id="filter1_f_248_2890" x="10.0279" y="-4.63869" width="20.2781" height="25.7777" filterUnits="userSpaceOnUse" color-interpolation-filters="sRGB">
<feFlood flood-opacity="0" result="BackgroundImageFix"/>
<feBlend mode="normal" in="SourceGraphic" in2="BackgroundImageFix" result="shape"/>
<feGaussianBlur stdDeviation="4.15278" result="effect1_foregroundBlur_248_2890"/>
</filter>
<filter id="filter2_f_248_2890" x="-5.74902" y="14.4165" width="15.167" height="20.6666" filterUnits="userSpaceOnUse" color-interpolation-filters="sRGB">
<feFlood flood-opacity="0" result="BackgroundImageFix"/>
<feBlend mode="normal" in="SourceGraphic" in2="BackgroundImageFix" result="shape"/>
<feGaussianBlur stdDeviation="2.875" result="effect1_foregroundBlur_248_2890"/>
</filter>
<filter id="filter3_f_248_2890" x="12.5825" y="14.4165" width="15.1675" height="20.6666" filterUnits="userSpaceOnUse" color-interpolation-filters="sRGB">
<feFlood flood-opacity="0" result="BackgroundImageFix"/>
<feBlend mode="normal" in="SourceGraphic" in2="BackgroundImageFix" result="shape"/>
<feGaussianBlur stdDeviation="2.875" result="effect1_foregroundBlur_248_2890"/>
</filter>
<filter id="filter4_f_248_2890" x="-2.0835" y="-5.75" width="26.1675" height="15.1666" filterUnits="userSpaceOnUse" color-interpolation-filters="sRGB">
<feFlood flood-opacity="0" result="BackgroundImageFix"/>
<feBlend mode="normal" in="SourceGraphic" in2="BackgroundImageFix" result="shape"/>
<feGaussianBlur stdDeviation="2.875" result="effect1_foregroundBlur_248_2890"/>
</filter>
<filter id="filter5_f_248_2890" x="-2.08203" y="23.5831" width="26.167" height="15.1667" filterUnits="userSpaceOnUse" color-interpolation-filters="sRGB">
<feFlood flood-opacity="0" result="BackgroundImageFix"/>
<feBlend mode="normal" in="SourceGraphic" in2="BackgroundImageFix" result="shape"/>
<feGaussianBlur stdDeviation="2.875" result="effect1_foregroundBlur_248_2890"/>
</filter>
<filter id="filter6_f_248_2890" x="8.11127" y="-6.55535" width="24.1114" height="46.1111" filterUnits="userSpaceOnUse" color-interpolation-filters="sRGB">
<feFlood flood-opacity="0" result="BackgroundImageFix"/>
<feBlend mode="normal" in="SourceGraphic" in2="BackgroundImageFix" result="shape"/>
<feGaussianBlur stdDeviation="5.11111" result="effect1_foregroundBlur_248_2890"/>
</filter>
<filter id="filter7_f_248_2890" x="2.69444" y="3.61131" width="27.6111" height="37.6945" filterUnits="userSpaceOnUse" color-interpolation-filters="sRGB">
<feFlood flood-opacity="0" result="BackgroundImageFix"/>
<feBlend mode="normal" in="SourceGraphic" in2="BackgroundImageFix" result="shape"/>
<feGaussianBlur stdDeviation="4.15278" result="effect1_foregroundBlur_248_2890"/>
</filter>
<filter id="filter8_f_248_2890" x="-7.38954" y="-8.30556" width="27.6131" height="37.6945" filterUnits="userSpaceOnUse" color-interpolation-filters="sRGB">
<feFlood flood-opacity="0" result="BackgroundImageFix"/>
<feBlend mode="normal" in="SourceGraphic" in2="BackgroundImageFix" result="shape"/>
<feGaussianBlur stdDeviation="4.15278" result="effect1_foregroundBlur_248_2890"/>
</filter>
<filter id="filter9_f_248_2890" x="13.2234" y="-3.27774" width="12.0557" height="12.0558" filterUnits="userSpaceOnUse" color-interpolation-filters="sRGB">
<feFlood flood-opacity="0" result="BackgroundImageFix"/>
<feBlend mode="normal" in="SourceGraphic" in2="BackgroundImageFix" result="shape"/>
<feGaussianBlur stdDeviation="2.55556" result="effect1_foregroundBlur_248_2890"/>
</filter>
<filter id="filter10_f_248_2890" x="-3.27664" y="24.222" width="12.0557" height="12.0557" filterUnits="userSpaceOnUse" color-interpolation-filters="sRGB">
<feFlood flood-opacity="0" result="BackgroundImageFix"/>
<feBlend mode="normal" in="SourceGraphic" in2="BackgroundImageFix" result="shape"/>
<feGaussianBlur stdDeviation="2.55556" result="effect1_foregroundBlur_248_2890"/>
</filter>
<filter id="filter11_f_248_2890" x="13.2234" y="24.222" width="12.0557" height="12.0557" filterUnits="userSpaceOnUse" color-interpolation-filters="sRGB">
<feFlood flood-opacity="0" result="BackgroundImageFix"/>
<feBlend mode="normal" in="SourceGraphic" in2="BackgroundImageFix" result="shape"/>
<feGaussianBlur stdDeviation="2.55556" result="effect1_foregroundBlur_248_2890"/>
</filter>
<filter id="filter12_f_248_2890" x="-1.35997" y="-1.36107" width="8.22239" height="8.22251" filterUnits="userSpaceOnUse" color-interpolation-filters="sRGB">
<feFlood flood-opacity="0" result="BackgroundImageFix"/>
<feBlend mode="normal" in="SourceGraphic" in2="BackgroundImageFix" result="shape"/>
<feGaussianBlur stdDeviation="1.59722" result="effect1_foregroundBlur_248_2890"/>
</filter>
<filter id="filter13_f_248_2890" x="-14.4308" y="-11.0173" width="64.4226" height="73.8104" filterUnits="userSpaceOnUse" color-interpolation-filters="sRGB">
<feFlood flood-opacity="0" result="BackgroundImageFix"/>
<feBlend mode="normal" in="SourceGraphic" in2="BackgroundImageFix" result="shape"/>
<feGaussianBlur stdDeviation="8.92241" result="effect1_foregroundBlur_248_2890"/>
</filter>
<filter id="filter14_b_248_2890" x="-12.9431" y="-16.6111" width="47.8887" height="36.8889" filterUnits="userSpaceOnUse" color-interpolation-filters="sRGB">
<feFlood flood-opacity="0" result="BackgroundImageFix"/>
<feGaussianBlur in="BackgroundImage" stdDeviation="8.30556"/>
<feComposite in2="SourceAlpha" operator="in" result="effect1_backgroundBlur_248_2890"/>
<feBlend mode="normal" in="SourceGraphic" in2="effect1_backgroundBlur_248_2890" result="shape"/>
</filter>
<linearGradient id="paint0_linear_248_2890" x1="-4.1237" y1="-0.916464" x2="22.918" y2="32.0835" gradientUnits="userSpaceOnUse">
<stop stop-color="#3250B7"/>
<stop offset="1" stop-color="#081A55"/>
</linearGradient>
<linearGradient id="paint1_linear_248_2890" x1="23.834" y1="10.0835" x2="6.87565" y2="7.79187" gradientUnits="userSpaceOnUse">
<stop stop-color="#1A3CAA"/>
<stop offset="1" stop-color="#667FD1"/>
</linearGradient>
<linearGradient id="paint2_linear_248_2890" x1="9.62598" y1="18.7919" x2="-2.74902" y2="5.5002" gradientUnits="userSpaceOnUse">
<stop stop-color="#0C2A8C"/>
<stop offset="1" stop-color="#617FE1"/>
</linearGradient>
<linearGradient id="paint3_linear_248_2890" x1="17.4157" y1="0.916667" x2="22.4574" y2="4.58333" gradientUnits="userSpaceOnUse">
<stop stop-color="#0A1F64"/>
<stop offset="1" stop-color="#3456C6"/>
</linearGradient>
<linearGradient id="paint4_linear_248_2890" x1="8.70833" y1="12.8333" x2="-2.75" y2="0.916667" gradientUnits="userSpaceOnUse">
<stop stop-color="#152868"/>
<stop offset="1" stop-color="#2D56DF"/>
</linearGradient>
<linearGradient id="paint5_linear_248_2890" x1="2.75098" y1="26.125" x2="2.75098" y2="34.375" gradientUnits="userSpaceOnUse">
<stop stop-color="#17328D"/>
<stop offset="1" stop-color="#5672CF"/>
</linearGradient>
<linearGradient id="paint6_linear_248_2890" x1="-4.1237" y1="-0.916464" x2="22.918" y2="32.0835" gradientUnits="userSpaceOnUse">
<stop stop-color="#000516"/>
<stop offset="1" stop-color="#368782"/>
</linearGradient>
<linearGradient id="paint7_linear_248_2890" x1="30.2507" y1="14.6669" x2="11.459" y2="5.5002" gradientUnits="userSpaceOnUse">
<stop stop-color="#3561F5"/>
<stop offset="1" stop-color="#CAC9FF"/>
</linearGradient>
<linearGradient id="paint8_linear_248_2890" x1="8.70963" y1="-5.95833" x2="15.1263" y2="9.625" gradientUnits="userSpaceOnUse">
<stop stop-color="#B9C9FF"/>
<stop offset="1" stop-color="#00196F"/>
</linearGradient>
<linearGradient id="paint9_linear_248_2890" x1="11.4596" y1="28.4165" x2="14.668" y2="37.1248" gradientUnits="userSpaceOnUse">
<stop stop-color="#2144B9"/>
<stop offset="1" stop-color="#557CFD"/>
</linearGradient>
<linearGradient id="paint10_linear_248_2890" x1="26.126" y1="26.5835" x2="-7.33236" y2="9.16687" gradientUnits="userSpaceOnUse">
<stop stop-color="#0C2064"/>
<stop offset="0.0001" stop-color="#100239"/>
<stop offset="1" stop-color="#91CAF3"/>
</linearGradient>
<linearGradient id="paint11_linear_248_2890" x1="2.75098" y1="26.125" x2="2.75098" y2="34.375" gradientUnits="userSpaceOnUse">
<stop stop-color="#17328D"/>
<stop offset="1" stop-color="#5672CF"/>
</linearGradient>
<linearGradient id="paint12_linear_248_2890" x1="8.70833" y1="12.8333" x2="-2.75" y2="0.916667" gradientUnits="userSpaceOnUse">
<stop stop-color="#152868"/>
<stop offset="1" stop-color="#2D56DF"/>
</linearGradient>
<linearGradient id="paint13_linear_248_2890" x1="15.5824" y1="25.6667" x2="26.124" y2="35.2917" gradientUnits="userSpaceOnUse">
<stop offset="0.0831474" stop-color="#000105"/>
<stop offset="1" stop-color="#5075EF"/>
</linearGradient>
<linearGradient id="paint14_linear_248_2890" x1="17.4157" y1="0.916667" x2="22.4574" y2="4.58333" gradientUnits="userSpaceOnUse">
<stop stop-color="#07174B"/>
<stop offset="1" stop-color="#010206"/>
</linearGradient>
<linearGradient id="paint15_linear_248_2890" x1="-11.7883" y1="-5.89286" x2="21.4698" y2="41.8658" gradientUnits="userSpaceOnUse">
<stop stop-color="#000516"/>
<stop offset="1" stop-color="#368782"/>
</linearGradient>
<linearGradient id="paint16_linear_248_2890" x1="70.3512" y1="11.0225" x2="20.0564" y2="6.3152" gradientUnits="userSpaceOnUse">
<stop stop-color="white"/>
<stop offset="1" stop-color="white" stop-opacity="0"/>
</linearGradient>
<linearGradient id="paint17_linear_248_2890" x1="23.3692" y1="29.68" x2="27.5982" y2="29.716" gradientUnits="userSpaceOnUse">
<stop stop-color="#181818"/>
<stop offset="1" stop-color="#181818" stop-opacity="0"/>
</linearGradient>
</defs>
</svg>
