<svg width="177" height="16" viewBox="0 0 177 16" fill="none" xmlns="http://www.w3.org/2000/svg">
<path fill-rule="evenodd" clip-rule="evenodd" d="M11.906 11.3334V5.74938C11.906 4.16538 11.0628 3.41338 9.64677 3.41338C8.46942 3.41338 7.45118 4.11738 7.00569 4.82138C6.71931 3.94138 6.00336 3.41338 4.87374 3.41338C3.69639 3.41338 2.67814 4.14938 2.35994 4.61338V3.60538H0.339355V11.3334H2.35994V6.13338C2.66223 5.70138 3.25091 5.22138 3.95095 5.22138C4.77828 5.22138 5.09648 5.73338 5.09648 6.45338V11.3334H7.13297V6.11738C7.41936 5.70138 8.00803 5.22138 8.72398 5.22138C9.55131 5.22138 9.86951 5.73338 9.86951 6.45338V11.3334H11.906ZM17.4586 11.5254C14.9289 11.5254 13.4016 9.66938 13.4016 7.46138C13.4016 5.26938 14.9289 3.41338 17.4586 3.41338C20.0043 3.41338 21.5316 5.26938 21.5316 7.46138C21.5316 9.66938 20.0043 11.5254 17.4586 11.5254ZM17.4586 9.71738C18.7155 9.71738 19.4315 8.67738 19.4315 7.46138C19.4315 6.26138 18.7155 5.22138 17.4586 5.22138C16.2017 5.22138 15.5017 6.26138 15.5017 7.46138C15.5017 8.67738 16.2017 9.71738 17.4586 9.71738ZM30.2345 11.3334V5.87738C30.2345 4.37338 29.423 3.41338 27.7366 3.41338C26.4797 3.41338 25.541 4.02138 25.0478 4.61338V3.60538H23.0272V11.3334H25.0478V6.13338C25.3819 5.66938 26.0024 5.22138 26.7979 5.22138C27.657 5.22138 28.2139 5.58938 28.2139 6.66138V11.3334H30.2345ZM35.803 11.5254C33.2733 11.5254 31.7459 9.66938 31.7459 7.46138C31.7459 5.26938 33.2733 3.41338 35.803 3.41338C38.3486 3.41338 39.876 5.26938 39.876 7.46138C39.876 9.66938 38.3486 11.5254 35.803 11.5254ZM35.803 9.71738C37.0599 9.71738 37.7759 8.67738 37.7759 7.46138C37.7759 6.26138 37.0599 5.22138 35.803 5.22138C34.5461 5.22138 33.8461 6.26138 33.8461 7.46138C33.8461 8.67738 34.5461 9.71738 35.803 9.71738ZM43.3921 8.85338C43.7262 9.34938 44.474 9.71738 45.1263 9.71738C46.3037 9.71738 47.0833 8.82138 47.0833 7.47738C47.0833 6.13338 46.3037 5.22138 45.1263 5.22138C44.474 5.22138 43.7262 5.60538 43.3921 6.11738V8.85338ZM43.3921 11.3334H41.3715V0.661377H43.3921V4.59738C43.9967 3.81338 44.8559 3.41338 45.7627 3.41338C47.7197 3.41338 49.1675 4.94938 49.1675 7.47738C49.1675 10.0534 47.7038 11.5254 45.7627 11.5254C44.8399 11.5254 43.9967 11.1094 43.3921 10.3414V11.3334ZM57.3294 11.3334H55.3088V10.5334C54.7838 11.1574 53.8769 11.5254 52.8745 11.5254C51.6495 11.5254 50.2016 10.6934 50.2016 8.96538C50.2016 7.15738 51.6495 6.46938 52.8745 6.46938C53.8928 6.46938 54.7997 6.80538 55.3088 7.41338V6.37338C55.3088 5.58938 54.6406 5.07738 53.6223 5.07738C52.795 5.07738 52.0313 5.38138 51.379 5.98938L50.6153 4.62938C51.554 3.79738 52.7632 3.41338 53.9723 3.41338C55.7225 3.41338 57.3294 4.11738 57.3294 6.34138V11.3334ZM53.686 10.1494C54.3383 10.1494 54.9747 9.92538 55.3088 9.47738V8.51738C54.9747 8.06938 54.3383 7.84538 53.686 7.84538C52.8905 7.84538 52.2381 8.26138 52.2381 9.01338C52.2381 9.73338 52.8905 10.1494 53.686 10.1494ZM66.5413 11.3334V5.87738C66.5413 4.37338 65.7299 3.41338 64.0434 3.41338C62.7865 3.41338 61.8479 4.02138 61.3546 4.61338V3.60538H59.3341V11.3334H61.3546V6.13338C61.6888 5.66938 62.3092 5.22138 63.1048 5.22138C63.9639 5.22138 64.5208 5.58938 64.5208 6.66138V11.3334H66.5413ZM76.0556 11.3334L72.9213 7.10938L75.9601 3.60538H73.4781L70.5666 7.04538V0.661377H68.546V11.3334H70.5666V9.34938L71.4894 8.35738L73.5259 11.3334H76.0556Z" fill="black"/>
<path fill-rule="evenodd" clip-rule="evenodd" d="M170.879 2.12133H172.535V7.41599H172.628L174.781 4.87266L176.307 4.86866L173.946 7.64866L176.791 11.1253H174.884L172.559 7.88933H172.535V11.1253H170.879V2.12133ZM92.1894 2.52399V7.46133C92.1894 9.14333 92.6846 10.0627 94.072 10.0627C95.3999 10.0627 95.9309 8.94799 95.9309 7.55866V2.52399H97.4954V7.86599C97.4954 10.038 96.0807 11.2687 94.023 11.2687C91.667 11.2687 90.4419 10.124 90.4419 7.77999V2.52399H92.1894ZM101.152 5.70466C101.712 5.11599 102.492 4.83333 103.274 4.83333C104.725 4.83333 105.492 5.61733 105.492 7.16466V11.12H103.846V7.35066C103.846 6.48999 103.462 5.92466 102.605 5.92466C101.799 5.92466 101.166 6.45333 101.166 7.46133V11.12H99.5179V4.97933H101.152V5.70466ZM107.429 11.12H109.078V4.97933H107.429V11.12ZM107.267 3.13799C107.267 2.67199 107.663 2.19199 108.223 2.19199C108.794 2.19199 109.238 2.65933 109.238 3.13799C109.238 3.66533 108.856 4.16933 108.247 4.16933C107.664 4.16933 107.267 3.66533 107.267 3.13799ZM112.725 11.12L110.087 4.95333H111.834C112.368 6.36599 112.922 7.69466 113.442 9.40133H113.467C114.027 7.69466 114.554 6.36599 115.124 4.95333H116.67L113.877 11.12H112.725ZM121.576 7.31399C121.64 6.37799 121.305 5.74133 120.489 5.74133C119.543 5.74133 119.119 6.48999 119.136 7.31399H121.576ZM119.109 8.19799C119.072 9.35333 119.89 10.2113 120.919 10.2113C121.53 10.2113 122.172 10.0027 122.583 9.71933L123.054 10.58C122.21 11.0707 121.329 11.2687 120.623 11.2687C118.75 11.2687 117.35 9.95333 117.35 7.92733C117.35 6.03533 118.737 4.83333 120.511 4.83333C122.445 4.83333 123.252 6.36733 123.13 8.19799H119.109ZM126.366 6.05999H126.389L126.724 5.58133C126.909 5.30999 127.281 4.83333 127.79 4.83333C128.161 4.83333 128.56 5.02999 128.907 5.38466L128.285 6.51466C128.013 6.37799 127.839 6.30599 127.506 6.30599C126.935 6.30599 126.378 6.76066 126.378 8.08599V11.12H124.724V4.97933H126.366V6.05999ZM133.308 6.13333C132.937 5.86333 132.553 5.74133 132.253 5.74133C131.882 5.74133 131.509 5.94933 131.509 6.36733C131.509 6.85866 132.106 7.14199 132.799 7.64333C133.682 8.29733 133.94 8.93533 133.94 9.49733C133.94 10.36 132.984 11.2687 131.623 11.2687C130.766 11.2687 130.134 10.9727 129.553 10.568L130.073 9.71933C130.443 10.016 130.976 10.3087 131.421 10.3087C131.896 10.3087 132.315 10.0627 132.315 9.54733C132.315 8.96999 131.67 8.65133 131.076 8.23333C130.369 7.75533 129.887 7.28799 129.887 6.52799C129.887 5.55599 130.827 4.83333 132.042 4.83333C132.726 4.83333 133.394 5.00399 133.843 5.39866L133.308 6.13333ZM138.006 7.85333C137.201 8.11133 136.792 8.56533 136.792 9.26466C136.792 9.80599 137.139 10.1747 137.539 10.1747C138.193 10.1747 139.05 9.36333 138.927 7.55866L138.006 7.85333ZM138.53 10.5313C138.082 10.9 137.512 11.2687 136.943 11.2687C135.975 11.2687 135.167 10.5313 135.167 9.40133C135.167 8.23333 136.024 7.58333 137.464 7.16466L138.927 6.73466C138.841 6.17066 138.331 5.81533 137.8 5.81533C137.091 5.81533 136.594 6.07333 136.161 6.44199L135.626 5.66799C136.397 5.04199 137.151 4.83333 138.006 4.83333C139.149 4.83333 140.551 5.19933 140.551 7.11733V9.62133C140.551 10.1133 140.612 10.692 140.812 11.12H139.064C138.937 10.9107 138.901 10.556 138.901 10.224L138.53 10.5313ZM142.399 11.12H144.05V2.09399H142.399V11.12ZM158.656 7.85333C157.848 8.11133 157.439 8.56533 157.439 9.26466C157.439 9.80599 157.785 10.1747 158.184 10.1747C158.838 10.1747 159.695 9.36333 159.575 7.55866L158.656 7.85333ZM159.173 10.5313C158.729 10.9 158.157 11.2687 157.587 11.2687C156.621 11.2687 155.813 10.5313 155.813 9.40133C155.813 8.23333 156.669 7.58333 158.11 7.16466L159.575 6.73466C159.484 6.17066 158.978 5.81533 158.441 5.81533C157.736 5.81533 157.239 6.07333 156.806 6.44199L156.272 5.66799C157.041 5.04199 157.799 4.83333 158.656 4.83333C159.794 4.83333 161.194 5.19933 161.194 7.11733V9.62133C161.194 10.1133 161.256 10.692 161.453 11.12H159.708C159.585 10.9107 159.544 10.556 159.544 10.224L159.173 10.5313ZM164.68 5.70466C165.239 5.11599 166.021 4.83333 166.801 4.83333C168.252 4.83333 169.02 5.61733 169.02 7.16466V11.12H167.371V7.35066C167.371 6.48999 166.987 5.92466 166.131 5.92466C165.324 5.92466 164.692 6.45333 164.692 7.46133V11.12H163.044V4.97933H164.68V5.70466ZM150.066 10.086H150.958C151.926 10.086 152.66 9.58333 152.66 8.62666C152.66 7.61866 151.903 7.18933 150.948 7.18933H150.066V10.086ZM150.066 6.13333H150.614C151.62 6.13333 152.302 5.49533 152.302 4.69533C152.302 3.93533 151.729 3.60466 150.973 3.60466H150.065V6.13333H150.066ZM148.319 11.1433V2.54733H151.457C152.919 2.54733 153.95 3.20999 153.95 4.37666C153.95 5.75133 152.821 6.31799 152.214 6.47666V6.50133C153.293 6.55133 154.495 7.28666 154.495 8.60066C154.495 10.086 153.241 11.1433 151.198 11.1433H148.319Z" fill="#565656"/>
<path fill-rule="evenodd" clip-rule="evenodd" d="M82.8652 0H83.5282V16H82.8652V0Z" fill="black"/>
</svg>
