<svg width="82" height="25" viewBox="0 0 82 25" fill="none" xmlns="http://www.w3.org/2000/svg">
<path d="M13.0743 0.304688C19.8839 0.304688 25.4059 5.76563 25.4059 12.5C25.4059 19.2344 19.8839 24.6953 13.0743 24.6953C6.26464 24.6953 0.742676 19.2344 0.742676 12.5C0.742676 5.76563 6.26464 0.304688 13.0743 0.304688Z" fill="url(#paint0_linear_224_2342)"/>
<path d="M13.0742 0.226562C6.22504 0.226562 0.663574 5.71875 0.663574 12.5C0.663574 19.2812 6.21714 24.7734 13.0742 24.7734C19.9312 24.7734 25.4848 19.2812 25.4848 12.5C25.4848 5.71875 19.9312 0.226562 13.0742 0.226562ZM13.0742 23.4219C6.97552 23.4219 2.03024 18.5312 2.03024 12.5C2.03024 6.46875 6.97552 1.57813 13.0742 1.57813C19.1728 1.57813 24.1181 6.46875 24.1181 12.5C24.1181 18.5312 19.1728 23.4219 13.0742 23.4219Z" fill="#8DC641"/>
<path d="M17.4114 9.71094L14.6464 13.7656H17.4114V9.71094ZM18.4541 8.07031V13.7734H19.6707V14.8047H18.4541V16.9375H17.4035V14.8047H13.4931V13.6953L17.4351 8.07812L18.4541 8.07031ZM12.3397 15.8984V16.9297H6.47803V16.8984C6.53333 15.9297 6.78612 15.2188 7.27591 14.6328C7.6709 14.1484 8.15279 13.7891 9.14026 13.1797C9.14026 13.1797 9.48785 12.9609 9.59055 12.8984C10.1198 12.5625 10.4595 12.2969 10.736 11.9922C11.0757 11.6016 11.2495 11.1797 11.2495 10.6797C11.2495 9.71094 10.5543 9.04688 9.55895 9.04688C8.39768 9.04688 7.8052 9.92187 7.7736 11.2266V11.25H6.73082V11.2266L6.72292 10.9922C6.72292 9.24219 7.87629 8.07031 9.61425 8.07031C11.3127 8.07031 12.4187 9.08594 12.4187 10.6562C12.4187 11.4609 12.1264 12.1094 11.5655 12.6797C11.1468 13.1172 10.7123 13.4063 9.74065 13.9922C9.72485 14 9.71695 14.0078 9.70115 14.0156C9.65375 14.0391 9.44046 14.1641 9.38516 14.2031C8.91907 14.4766 8.63467 14.6719 8.38188 14.9063C8.07379 15.1953 7.86839 15.5156 7.7736 15.8906H12.3397V15.8984Z" fill="white"/>
<path d="M31.8994 7.55469H36.031C37.058 7.55469 37.8638 7.79688 38.4563 8.27344C39.0487 8.75781 39.3489 9.46875 39.3489 10.4219C39.3489 11.3203 39.0724 12.0313 38.5195 12.5547C37.9665 13.0781 37.216 13.3438 36.2601 13.3438H33.5742V16.9688H31.8994V7.55469ZM33.5742 8.9375V12.0234H35.9046C37.1212 12.0234 37.7216 11.5078 37.7216 10.4766C37.7216 9.45313 37.0659 8.94531 35.7545 8.94531L33.5742 8.9375Z" fill="black"/>
<path d="M44.3102 10.0156V11.4609C44.0416 11.4375 43.8678 11.4219 43.7731 11.4219C42.4459 11.4219 41.7823 12.2734 41.7823 13.9766V16.9766H40.2734V10.1484H41.7033V11.5078C42.1931 10.4922 42.9673 9.98438 44.0179 9.98438L44.3102 10.0156Z" fill="black"/>
<path d="M46.7986 7.51562V9H45.2739V7.51562H46.7986ZM46.7986 10.1484V16.9766H45.2739V10.1484H46.7986Z" fill="black"/>
<path d="M47.8809 10.1484H49.5398L51.3094 15.3984L53.0078 10.1484H54.5878L52.1152 16.9922H50.4009L47.8809 10.1484Z" fill="black"/>
<path d="M55.1093 12.2578C55.2673 10.7109 56.2784 9.94531 58.1349 9.94531C58.996 9.94531 59.6912 10.1094 60.2046 10.4453C60.7181 10.7812 60.9709 11.3047 60.9709 12.0078V15.4687C60.9709 15.6641 60.9946 15.7969 61.042 15.8672C61.0894 15.9375 61.1842 15.9766 61.3264 15.9766C61.437 15.9766 61.5476 15.9687 61.674 15.9531V17.0156C61.279 17.1094 60.9551 17.1641 60.6865 17.1641C60.0388 17.1641 59.6596 16.8906 59.5648 16.3437C58.9881 16.8906 58.1744 17.1641 57.1395 17.1641C56.4285 17.1641 55.8598 16.9844 55.4411 16.6172C55.0224 16.25 54.8091 15.7578 54.8091 15.125C54.8091 14.9297 54.8328 14.75 54.8723 14.5859C54.9197 14.4219 54.9671 14.2734 55.0303 14.1484C55.0856 14.0234 55.1804 13.9141 55.3147 13.8047C55.4411 13.6953 55.5517 13.6094 55.6386 13.5391C55.7255 13.4687 55.8598 13.4062 56.0573 13.3437C56.2468 13.2812 56.389 13.2344 56.4838 13.2031C56.5786 13.1719 56.7366 13.1406 56.9736 13.1016C57.2027 13.0703 57.3607 13.0391 57.4318 13.0312C57.5108 13.0156 57.6688 13 57.9058 12.9687C58.4509 12.8984 58.8222 12.8359 59.0197 12.7891C59.2172 12.7422 59.3515 12.6641 59.4226 12.5703C59.4858 12.5 59.5174 12.3359 59.5174 12.0781C59.5174 11.3906 59.0434 11.0469 58.0954 11.0469C57.5977 11.0469 57.2343 11.1406 56.9973 11.3281C56.7682 11.5156 56.6181 11.8281 56.5549 12.2656H55.1093V12.2578ZM59.4937 13.5547C59.3752 13.6172 59.2409 13.6719 59.0908 13.7187C58.9407 13.7656 58.8143 13.7969 58.7195 13.8125C58.6247 13.8281 58.4825 13.8437 58.2771 13.875C58.0796 13.8984 57.9453 13.9219 57.8821 13.9297C57.6925 13.9531 57.5503 13.9844 57.4397 14C57.3291 14.0234 57.2027 14.0625 57.0447 14.1094C56.8867 14.1641 56.7682 14.2266 56.6813 14.3047C56.5944 14.3828 56.5233 14.4844 56.4601 14.6094C56.3969 14.7344 56.3653 14.8906 56.3653 15.0625C56.3653 15.3906 56.4759 15.6406 56.6892 15.8125C56.9104 15.9922 57.2106 16.0781 57.6056 16.0781C58.285 16.0781 58.8064 15.8984 59.1698 15.5391C59.3752 15.3359 59.4779 14.9453 59.4779 14.3594V13.5547H59.4937Z" fill="black"/>
<path d="M66.0503 10.1484V11.25H64.66V14.8437C64.66 15.0547 64.6679 15.2031 64.6758 15.2891C64.6837 15.375 64.7074 15.4687 64.7548 15.5703C64.8022 15.6719 64.8812 15.7422 64.9918 15.7734C65.1024 15.8125 65.2604 15.8281 65.45 15.8281C65.7027 15.8281 65.9002 15.8203 66.0503 15.8047V16.9922C65.7501 17.0234 65.4026 17.0469 65.0234 17.0469C64.7548 17.0469 64.5178 17.0234 64.3203 16.9844C64.1228 16.9453 63.949 16.8984 63.8147 16.8437C63.6804 16.7891 63.5698 16.7031 63.4829 16.5703C63.396 16.4453 63.3249 16.3359 63.2775 16.25C63.2301 16.1641 63.1906 16.0156 63.1669 15.8047C63.1432 15.5937 63.1353 15.4297 63.1353 15.3203C63.1353 15.2109 63.1353 15.0156 63.1353 14.7422C63.1353 14.7109 63.1353 14.6797 63.1353 14.6562C63.1353 14.6328 63.1353 14.6094 63.1353 14.5781C63.1353 14.5469 63.1353 14.5156 63.1353 14.4922V11.25H61.9819V10.1484H63.1353V8.09375H64.66V10.1484H66.0503Z" fill="black"/>
<path d="M74.0687 15.6406V16.9766H67.6777C67.6856 16.5625 67.7409 16.1797 67.8515 15.8359C67.9621 15.4922 68.0806 15.1953 68.2228 14.9531C68.3571 14.7109 68.5625 14.4609 68.839 14.2109C69.1076 13.9609 69.3525 13.75 69.5737 13.5859C69.7949 13.4219 70.0951 13.2109 70.4743 12.9609C70.498 12.9453 70.6323 12.8594 70.8693 12.7031C71.1063 12.5469 71.2484 12.4531 71.3037 12.4141C71.359 12.375 71.4775 12.2813 71.6671 12.1328C71.8567 11.9844 71.9752 11.8672 72.0384 11.7813C72.0937 11.6953 72.1727 11.5703 72.2754 11.4219C72.3781 11.2734 72.4492 11.1172 72.4808 10.9688C72.5124 10.8125 72.5361 10.6484 72.5361 10.4766C72.5361 9.99219 72.4018 9.60938 72.1253 9.33594C71.8567 9.05469 71.4854 8.92188 71.0194 8.92188C70.7508 8.92188 70.5217 8.96094 70.3242 9.04688C70.1267 9.13281 69.9766 9.24219 69.866 9.36719C69.7554 9.5 69.6606 9.67188 69.5895 9.875C69.5184 10.0859 69.471 10.2813 69.4473 10.4609C69.4236 10.6484 69.4078 10.8594 69.3999 11.1094H67.9147V10.875C67.9147 9.875 68.1991 9.08594 68.7679 8.5C69.3367 7.91406 70.103 7.61719 71.0589 7.61719C71.9673 7.61719 72.702 7.86719 73.255 8.375C73.808 8.88281 74.0845 9.55469 74.0845 10.3906C74.0845 10.7266 74.0292 11.0469 73.9265 11.3438C73.8159 11.6406 73.7053 11.8828 73.5868 12.0703C73.4683 12.2578 73.255 12.4688 72.9627 12.7188C72.6704 12.9688 72.4492 13.1406 72.307 13.2344C72.1648 13.3281 71.9041 13.5078 71.517 13.7656C70.4032 14.4766 69.7317 15.1016 69.5105 15.6328H74.0687V15.6406Z" fill="black"/>
<path d="M81.3367 13.5078V14.7812H80.1438V16.9766H78.6745L78.6587 14.7812H74.6851V13.2891L78.6982 7.64062H80.1438V13.5156L81.3367 13.5078ZM78.6824 13.5078V9.5L75.9411 13.5078H78.6824Z" fill="black"/>
<defs>
<linearGradient id="paint0_linear_224_2342" x1="0.742676" y1="12.5" x2="25.4059" y2="12.5" gradientUnits="userSpaceOnUse">
<stop stop-color="#333333"/>
<stop offset="1"/>
</linearGradient>
</defs>
</svg>
