<svg width="20" height="20" viewBox="0 0 20 20" fill="none" xmlns="http://www.w3.org/2000/svg">
<path fill-rule="evenodd" clip-rule="evenodd" d="M0 10C0 15.5228 4.47715 20 10 20C15.5228 20 20 15.5228 20 10C20 4.47715 15.5228 0 10 0C4.47715 0 0 4.47715 0 10ZM8.1667 14.5833L8.33685 12.0343L8.3367 12.0342L12.9738 7.84959C13.1773 7.66898 12.9293 7.5809 12.6592 7.74473L6.9364 11.3551L4.46449 10.5836C3.93066 10.4202 3.92683 10.0533 4.58434 9.78962L14.2168 6.07537C14.6568 5.87563 15.0814 6.18103 14.9135 6.85438L13.273 14.5846C13.1585 15.134 12.8266 15.2653 12.3667 15.0116L9.86783 13.1654L8.6667 14.3333C8.66292 14.337 8.65915 14.3407 8.6554 14.3443C8.52106 14.4751 8.40992 14.5833 8.1667 14.5833Z" fill="black"/>
</svg>
